<svg xmlns="http://www.w3.org/2000/svg" viewBox="0 0 16 16" shape-rendering="crispEdges"><rect x="13" y="0" width="1" height="1" fill="#266e68"/><rect x="14" y="0" width="1" height="1" fill="#a8f0ea"/><rect x="15" y="0" width="1" height="1" fill="#266e68"/><rect x="12" y="1" width="1" height="1" fill="#266e68"/><rect x="13" y="1" width="1" height="1" fill="#a8f0ea"/><rect x="14" y="1" width="1" height="1" fill="#4fd6cc"/><rect x="15" y="1" width="1" height="1" fill="#266e68"/><rect x="11" y="2" width="1" height="1" fill="#266e68"/><rect x="12" y="2" width="1" height="1" fill="#a8f0ea"/><rect x="13" y="2" width="1" height="1" fill="#4fd6cc"/><rect x="14" y="2" width="1" height="1" fill="#266e68"/><rect x="10" y="3" width="1" height="1" fill="#266e68"/><rect x="11" y="3" width="1" height="1" fill="#a8f0ea"/><rect x="12" y="3" width="1" height="1" fill="#4fd6cc"/><rect x="13" y="3" width="1" height="1" fill="#266e68"/><rect x="9" y="4" width="1" height="1" fill="#266e68"/><rect x="10" y="4" width="1" height="1" fill="#a8f0ea"/><rect x="11" y="4" width="1" height="1" fill="#4fd6cc"/><rect x="12" y="4" width="1" height="1" fill="#266e68"/><rect x="8" y="5" width="1" height="1" fill="#266e68"/><rect x="9" y="5" width="1" height="1" fill="#a8f0ea"/><rect x="10" y="5" width="1" height="1" fill="#4fd6cc"/><rect x="11" y="5" width="1" height="1" fill="#266e68"/><rect x="7" y="6" width="1" height="1" fill="#266e68"/><rect x="8" y="6" width="1" height="1" fill="#a8f0ea"/><rect x="9" y="6" width="1" height="1" fill="#4fd6cc"/><rect x="10" y="6" width="1" height="1" fill="#266e68"/><rect x="6" y="7" width="1" height="1" fill="#266e68"/><rect x="7" y="7" width="1" height="1" fill="#a8f0ea"/><rect x="8" y="7" width="1" height="1" fill="#4fd6cc"/><rect x="9" y="7" width="1" height="1" fill="#266e68"/><rect x="5" y="8" width="1" height="1" fill="#266e68"/><rect x="6" y="8" width="1" height="1" fill="#a8f0ea"/><rect x="7" y="8" width="1" height="1" fill="#4fd6cc"/><rect x="8" y="8" width="1" height="1" fill="#266e68"/><rect x="4" y="9" width="1" height="1" fill="#266e68"/><rect x="5" y="9" width="1" height="1" fill="#a8f0ea"/><rect x="6" y="9" width="1" height="1" fill="#4fd6cc"/><rect x="7" y="9" width="1" height="1" fill="#266e68"/><rect x="3" y="10" width="1" height="1" fill="#266e68"/><rect x="4" y="10" width="1" height="1" fill="#a8f0ea"/><rect x="5" y="10" width="1" height="1" fill="#4fd6cc"/><rect x="6" y="10" width="1" height="1" fill="#266e68"/><rect x="1" y="11" width="1" height="1" fill="#b07d4a"/><rect x="2" y="11" width="1" height="1" fill="#b07d4a"/><rect x="3" y="11" width="1" height="1" fill="#b07d4a"/><rect x="4" y="11" width="1" height="1" fill="#b07d4a"/><rect x="5" y="11" width="1" height="1" fill="#b07d4a"/><rect x="6" y="11" width="1" height="1" fill="#b07d4a"/><rect x="2" y="12" width="1" height="1" fill="#4a2c12"/><rect x="3" y="12" width="1" height="1" fill="#7a4a22"/><rect x="4" y="12" width="1" height="1" fill="#4a2c12"/><rect x="1" y="13" width="1" height="1" fill="#4a2c12"/><rect x="2" y="13" width="1" height="1" fill="#7a4a22"/><rect x="3" y="13" width="1" height="1" fill="#4a2c12"/><rect x="1" y="14" width="1" height="1" fill="#7a4a22"/><rect x="2" y="14" width="1" height="1" fill="#4a2c12"/><rect x="1" y="15" width="1" height="1" fill="#4a2c12"/></svg>